<svg id="katman_1" data-name="katman 1" xmlns="http://www.w3.org/2000/svg" xmlns:xlink="http://www.w3.org/1999/xlink" viewBox="0 0 750 171.77"><defs><style>.cls-1{fill:none;}.cls-2{clip-path:url(#clip-path);}.cls-3{fill:#4285f4;}.cls-4{fill:#34a853;}.cls-5{fill:#fbbc04;}.cls-6{fill:#ea4335;}.cls-7{fill:#c5221f;}.cls-8{fill:#fff;fill-rule:evenodd;}</style><clipPath id="clip-path" transform="translate(-9.11 -11.67)"><rect class="cls-1" x="9.11" y="-277.44" width="750" height="750"/></clipPath></defs><title>Gmail with Text mod</title><g class="cls-2"><path class="cls-3" d="M24.72,183.44H61.15V95l-52-39V167.83a15.61,15.61,0,0,0,15.61,15.61" transform="translate(-9.11 -11.67)"/></g><g class="cls-2"><path class="cls-4" d="M186,183.44h36.43a15.61,15.61,0,0,0,15.61-15.61V56L186,95v88.46Z" transform="translate(-9.11 -11.67)"/></g><g class="cls-2"><path class="cls-5" d="M186,27.33V95l52-39V35.14c0-19.29-22-30.31-37.47-18.73Z" transform="translate(-9.11 -11.67)"/></g><g class="cls-2"><polygon class="cls-6" points="52.04 83.3 52.04 15.66 114.49 62.49 176.93 15.66 176.93 83.3 114.49 130.14 52.04 83.3"/></g><g class="cls-2"><path class="cls-7" d="M9.11,35.13V55.94l52,39V27.32L46.58,16.4C31.14,4.82,9.11,15.84,9.11,35.13" transform="translate(-9.11 -11.67)"/></g><g class="cls-2"><path class="cls-8" d="M759.11,161.59c-4.43,0-8.86-.09-13.28.06-1.86.06-2.19-.6-2.19-2.29q.08-42.65,0-85.29c0-10.2,0-20.4,0-30.61,0-1.69.33-2.35,2.19-2.29,4.42.15,8.85.06,13.28.06Z" transform="translate(-9.11 -11.67)"/></g><g class="cls-2"><path class="cls-8" d="M432.1,97.18q13.51,0,27,0c1.21,0,2.18,0,2.35,1.6,1.69,15.94-.71,30.93-11,43.78s-23.77,19.84-40.18,21.38c-12.45,1.16-24.53-.1-35.67-6C355.38,147.71,343.43,132,340.76,110c-2.34-19.3,2.18-36.7,15.61-51.24,14.42-15.61,32.39-21.9,53.39-19.85,13.44,1.31,25.52,5.9,35.4,15.44,2.15,2.08,2.13,2.11,0,4.21-2.65,2.66-5.34,5.28-7.95,8-.82.84-1.26.82-2.12,0-13.33-13.26-29.47-16.16-46.78-10.94s-27.86,17.57-31.29,35.35c-2.82,14.59-.72,28.51,8.65,40.56,11,14.14,25.79,19.44,43.36,17.67a42.17,42.17,0,0,0,24.6-10.55c7.44-6.68,11.21-15.22,12.65-25,.29-1.93-.61-2-2.12-2-13.07,0-26.14,0-39.21.06-1.71,0-2.39-.36-2.3-2.21.15-3.37.12-6.76,0-10.14-.05-1.65.42-2.19,2.14-2.17,9.09.07,18.18,0,27.27,0" transform="translate(-9.11 -11.67)"/></g><g class="cls-2"><path class="cls-8" d="M493.53,90.46c6.62-8.95,15.38-14.1,26.56-13.89s19.9,5.09,25.1,15.6a47.34,47.34,0,0,1,7-8C561.72,75.83,577.81,73.92,589,80c8.26,4.48,12.09,12,13.71,20.87a56.31,56.31,0,0,1,.78,9.87c0,16.22,0,32.45.06,48.67,0,1.75-.42,2.34-2.23,2.27-3.6-.14-7.21-.15-10.81,0-2,.08-2.66-.38-2.64-2.54.1-15.25,0-30.5.06-45.74a45.76,45.76,0,0,0-1-10.51c-1.78-7.56-6.47-11.54-14.25-12-12.14-.77-21.59,7.07-23.64,19.57a42.59,42.59,0,0,0-.48,6.95c0,14.05,0,28.09,0,42.14,0,1.62-.31,2.24-2.08,2.17-3.83-.14-7.66-.15-11.49,0-1.79.07-2.08-.61-2.07-2.19q.07-22.87,0-45.74a44.75,44.75,0,0,0-1-11.18c-1.87-7.34-6.47-11.21-14.05-11.71C505.34,90,495.57,98.43,494,111.4a55.89,55.89,0,0,0-.39,7q0,20.17,0,40.34c0,3.39.48,2.89-3,2.92s-6.91-.06-10.36,0c-1.52.05-2.06-.31-2.05-1.95q.07-39.32,0-78.65c0-1.49.44-1.94,1.91-1.9q5.52.14,11,0c1.45,0,2,.34,1.95,1.87-.11,2.4-.06,4.81,0,7.21,0,.68-.3,1.46.45,2.22" transform="translate(-9.11 -11.67)"/></g><g class="cls-2"><path class="cls-8" d="M674.32,150.32a2.15,2.15,0,0,0-1.68,1.22c-7.49,10.14-17.54,14-29.94,12.4-9.45-1.24-17.16-5.46-22.44-13.41-9.2-13.87-3.6-32.21,12-38.69,13.27-5.49,26.78-5.11,40.07.4,1.49.62,1.91.76,2-1.16.51-12.74-10.54-20.21-19.79-20.71-8.72-.47-15.88,2.56-21.19,9.58-.85,1.12-1.42,1.1-2.51.38-3.45-2.26-6.91-4.52-10.49-6.57-1.67-1-1.34-1.67-.39-2.86a35.21,35.21,0,0,1,20-13c10.24-2.4,20.46-2.23,30.23,2,11.25,4.9,17.4,13.77,18.51,25.89,1,10.85.25,21.76.38,32.65.08,7,0,14,.05,20.95,0,1.6-.28,2.27-2.07,2.2-3.67-.15-7.36-.1-11,0-1.37,0-1.84-.34-1.79-1.76.1-3.11,0-6.24,0-9.54m-19.14-29.75c-6.81,0-12.68,1.22-17.66,5.22-4.49,3.6-6.58,8.24-5,13.92s6,8.68,11.42,10.11c13.2,3.49,28-6.65,30.11-20.2.4-2.61-.26-4-2.52-5.17-5.32-2.88-11-3.69-16.35-3.88" transform="translate(-9.11 -11.67)"/></g><g class="cls-2"><path class="cls-8" d="M723.46,120.39c0,12.84-.08,25.68.07,38.52,0,2.4-.71,2.86-2.88,2.76-3.67-.17-7.36-.11-11,0-1.42,0-1.76-.47-1.76-1.81q0-39.42,0-78.84c0-1.53.53-1.89,2-1.86,3.9.09,7.81.11,11.71,0,1.64,0,2,.54,2,2.06,0,13.07,0,26.13,0,39.2" transform="translate(-9.11 -11.67)"/></g><g class="cls-2"><path class="cls-8" d="M715.78,39.58A11.35,11.35,0,1,1,704.29,51a11.31,11.31,0,0,1,11.49-11.39" transform="translate(-9.11 -11.67)"/></g></svg>