<?xml version="1.0" encoding="utf-8"?>
<!-- Generator: Adobe Illustrator 24.0.3, SVG Export Plug-In . SVG Version: 6.00 Build 0)  -->
<svg version="1.1" id="Layer_1" xmlns="http://www.w3.org/2000/svg" xmlns:xlink="http://www.w3.org/1999/xlink" x="0px" y="0px"
	 viewBox="0 0 102.4 25.9" style="enable-background:new 0 0 102.4 25.9;" xml:space="preserve">
<style type="text/css">
	.st0{fill:#FFFFFF;}
	.st1{fill:#0177B5;}
</style>
<g transform="matrix(.424533 0 0 .424533 8.778874 17.021191)">
	<path class="st0" d="M6.2,3.3V12h-26.9v-43.1h9.4V3.3H6.2z M10.4-17.2h9.1V12h-9.1L10.4-17.2z M14.9-31.7c2.9,0,5.3,2.4,5.3,5.3
		s-2.4,5.3-5.3,5.3s-5.3-2.4-5.3-5.3C9.7-29.4,12-31.7,14.9-31.7 M76.7-17.2h11.1L75.9-3.7L87.6,12H76.2L66.6-2.5h-0.1v14.4h-9.1
		v-43.1h9.1v25.7L76.7-17.2z M24.5-17.2h8.7v4h0.1c1.2-2.3,4.2-4.7,8.6-4.7c9.2,0,10.9,6,10.9,13.9v16h-9.1V-2.2
		c0-3.4-0.1-7.7-4.7-7.7c-4.7,0-5.4,3.7-5.4,7.5V12h-9.1L24.5-17.2L24.5-17.2z M106.9-6c0.1-3-2.3-5.6-5.6-5.6c-4,0-6.2,2.7-6.4,5.6
		C94.9-6,106.9-6,106.9-6z M114.6,6.9c-2.9,3.7-7.7,5.8-12.4,5.8c-9.1,0-16.3-6-16.3-15.4s7.3-15.4,16.3-15.4
		c8.5,0,13.8,6,13.8,15.4v2.8H95c0.7,3.4,3.3,5.7,6.8,5.7c3,0,5-1.5,6.5-3.6L114.6,6.9z M134.8-10.2c-4.5,0-7.2,3-7.2,7.4
		s2.7,7.4,7.2,7.4s7.3-3,7.3-7.4C142.1-7.1,139.4-10.2,134.8-10.2 M150.4,11.9h-8.3V8H142c-1.4,2.1-4.9,4.6-9,4.6
		c-8.7,0-14.4-6.3-14.4-15.2c0-8.2,5.1-15.7,13.4-15.7c3.8,0,7.3,1,9.3,3.9h0.1v-16.8h9.1L150.4,11.9z"/>
	<path class="st1" d="M216.1-40.1H164c-2.5,0-4.5,2-4.5,4.4v52.3c0,2.4,2,4.4,4.5,4.4h52.1c2.5,0,4.5-2,4.5-4.4v-52.3
		C220.7-38.2,218.6-40.1,216.1-40.1z M177.6,12h-9.1v-29.2h9.1V12z M173.1-21.2c-2.9,0-5.3-2.4-5.3-5.3s2.4-5.3,5.3-5.3
		c2.9,0,5.3,2.4,5.3,5.3S176-21.2,173.1-21.2z M211.6,12h-9.1V-2.2c0-3.4-0.1-7.7-4.7-7.7c-4.7,0-5.4,3.7-5.4,7.5V12h-9.1v-29.2l0,0
		l0,0l0,0h8.7v4h0.1c1.2-2.3,4.2-4.7,8.6-4.7c9.2,0,10.9,6,10.9,13.9V12z"/>
</g>
</svg>
