<?xml version="1.0" encoding="utf-8"?>
<!-- Generator: Adobe Illustrator 24.0.3, SVG Export Plug-In . SVG Version: 6.00 Build 0)  -->
<svg version="1.1" id="Layer_1" xmlns="http://www.w3.org/2000/svg" xmlns:xlink="http://www.w3.org/1999/xlink" x="0px" y="0px"
	 viewBox="0 0 1890.9 987.5" style="enable-background:new 0 0 1890.9 987.5;" xml:space="preserve">
<style type="text/css">
	.st0{fill:#FFFFFF;}
</style>
<path class="st0" d="M1393.5,398.7c-0.1-1.3-0.3-2.6-0.5-3.8c-0.1-1.2-0.3-2.5-0.5-3.7c-0.3-2.5-0.7-4.9-1.1-7.4
	c-0.8-4.9-1.6-9.9-2.6-14.9c-2-10-4.4-19.9-7.5-29.9c-3-10-6.7-19.9-11-29.6c-2.2-4.9-4.5-9.7-7-14.5c-2.6-4.8-5.2-9.5-8.1-14.1
	c-2.9-4.6-6-9.2-9.2-13.6c-3.3-4.4-6.8-8.8-10.4-12.9c-7.3-8.4-15.4-16.2-24.2-23.2c-8.8-7-18.1-13.3-28-18.7
	c-19.7-10.9-41.2-18.3-62.9-22.7c-5.5-1.1-10.9-2-16.4-2.8c-5.5-0.7-10.9-1.3-16.4-1.8c-5.5-0.5-10.9-0.7-16.4-0.9
	c-2.8-0.1-5.7-0.1-8.2-0.1h-2h-1.1h-1.1l-4.2,0.1c-11.2,0.3-22.4,1.5-33.3,3.5c-10.9,2-21.6,4.8-32,8.3c-20.8,6.9-40.1,16.4-58.1,27
	c-9,5.3-17.7,11-26.1,16.8c-8.4,5.8-16.5,11.9-24.3,17.9c-15.7,12.3-30.5,24.9-44.7,37.4s-27.7,24.9-40.8,37
	c-13.1,12-25.9,23.6-38.4,34.6c-3.2,2.8-6.5,5.6-9.7,8.4c-0.7-1.8-1.6-3.6-2.6-5.6c-2-4.2-4.4-9-7.3-14.3c-3-5.3-6.4-11-10.5-17
	c-2-3-4.3-6.1-6.7-9.3c-2.4-3.2-5-6.3-7.7-9.6s-5.7-6.5-8.9-9.7c-3.2-3.2-6.6-6.5-10.2-9.6c-7.2-6.3-15.3-12.6-24.3-18.3
	c-4.5-2.8-9.2-5.6-14.2-8.2s-10.1-5-15.6-7.1c-10.8-4.3-22.4-7.8-34.7-10c-6.1-1.1-12.5-1.9-18.9-2.4c-6.4-0.4-12.9-0.5-19.5-0.2
	c-13.2,0.6-26.7,2.8-40,6.7c-3.3,0.9-6.6,2-9.9,3.2c-3.3,1.2-6.5,2.5-9.8,3.9c-6.5,2.8-12.9,6-19,9.7c-6.2,3.6-12.1,7.7-17.9,12.2
	c-5.7,4.5-11.2,9.3-16.3,14.5c-5.2,5.2-10,10.8-14.5,16.6s-8.7,11.9-12.5,18.3c-3.8,6.3-7.2,12.9-10.2,19.5
	c-3,6.7-5.7,13.5-8.1,20.5c-4.6,13.9-8,28.2-9.9,42.4c-0.5,3.6-0.9,7.1-1.3,10.7c-0.1,0.9-0.2,1.8-0.3,2.7l-0.3,2.8
	c-0.1,0.9-0.1,1.8-0.2,2.6l-0.2,2.5l-0.1,1.4L496,445c-0.1,0.9-0.1,1.8-0.1,2.7c-0.1,1.8-0.1,3.6-0.1,5.4c-0.1,3.6,0,7.2,0.1,10.8
	c0.3,7.2,0.9,14.5,2,21.6c1,7.1,2.5,14.2,4.4,21.2c3.7,13.9,9.1,27.2,15.7,39.3c6.6,12.2,14.3,23.2,22.4,33.3s16.6,19.1,25.1,27.6
	c8.5,8.4,16.9,16.2,24.9,23.6s15.8,14.6,22.9,21.4c3.6,3.5,7,6.9,10.2,10.3c3.3,3.4,6.4,6.7,9.4,10.1s5.7,6.7,8.4,10
	s5.1,6.6,7.3,9.9c9,13.1,15,25.8,18.8,36.7c0.9,2.8,1.8,5.4,2.6,8c0.2,7.5,0.1,15-0.1,22.4c-0.3,8.2-0.9,16.4-1.9,24.7
	c-1.8,16.4-4.6,32.6-8.4,48.7c-1.8,8.1-3.8,16.1-5.9,24.2l-3.2,12.2c-1,4.1-2.1,8.3-3,12.7c-0.5,2.2-0.9,4.4-1.1,6.9
	c-0.3,2.4-0.6,4.9-0.5,8c0.1,1.5,0.3,3.3,0.8,5.3c0.1,0.5,0.3,1.1,0.5,1.6c0.1,0.3,0.2,0.6,0.3,0.9s0.3,0.6,0.4,0.9
	c0.6,1.2,1.5,2.6,2.6,3.7c1.1,1.2,2.6,2.3,4,3c1.5,0.8,2.9,1.2,4.2,1.5c0.7,0.1,1.3,0.3,1.9,0.3c0.6,0.1,1.1,0.1,1.7,0.1h0.4h0.5
	l0.9-0.1l0.9-0.1l25.3-2.8l49.9-5.7c16.6-1.9,33.2-3.7,49.9-5.5c16.6-1.8,33.2-3.4,49.8-4.9c16.6-1.5,33.1-2.8,49.7-3.8
	c16.6-1,33.1-2,49.7-2.4l12.4-0.3c4.1-0.1,8.3-0.1,12.4-0.1c8.2-0.1,16.5,0,24.7,0.1c8.2,0.1,16.4,0.4,24.6,0.8
	c8.2,0.4,16.4,0.9,24.5,1.6c8.2,0.7,16.2,1.5,24.3,2.6c8,1,16.1,2.2,24,3.6c8,1.4,15.8,3,23.6,4.9c7.8,1.8,15.5,4,23,6.4
	c15.1,4.9,29.7,10.8,43.3,18.2l20.1,10.9l4.4-22.2l1.2-5.9l1.1-5.9c0.7-3.9,1.5-7.8,2.2-11.7c1.4-7.8,2.7-15.6,4-23.4
	c2.5-15.7,4.7-31.4,6.6-47.2c1.9-15.8,3.4-31.7,4.3-47.8c0.9-16,1.3-32.2,0.5-48.7c-0.1-3.2-0.4-6.5-0.7-9.8
	c0.3-0.1,0.5-0.1,0.9-0.1c4.9-0.7,10.9-1.9,17.7-4.2c6.8-2.4,14.4-5.7,22.4-10.4c16-9.4,33.6-24.2,50.2-43.9
	c16.7-19.7,32.7-44.4,46.4-73.2c13.7-28.8,25.2-61.7,31.9-97.9c3.3-18.1,5.4-37.1,5.5-56.7C1395,418.8,1394.5,408.8,1393.5,398.7z
	 M666.4,896L666.4,896c0.1,0.1,0.1,0.2,0.1,0.2c0,0.1,0,0.1,0,0.1C666.5,896.4,666.4,896.3,666.4,896z M1368.9,455.5
	c-0.5,8.8-1.3,17.5-2.5,26.1c-2.3,17.1-5.7,33.7-10,49.5c-2.2,7.9-4.5,15.6-7,23.1c-2.5,7.5-5.2,14.8-8,21.9
	c-5.7,14.1-11.9,27.4-18.5,39.6c-6.7,12.2-58,74.4-65.2,79.6c-7.2,5.2-14.1,9.2-20.5,12.1c-6.3,2.9-12,4.7-16.7,5.9
	c-0.3,0.1-0.5,0.1-0.7,0.1c-0.4-4.5-1-9.1-1.8-13.7c-0.7-4.2-1.6-8.6-2.8-13c-1.1-4.4-2.7-8.9-4.9-13.5c-1.1-2.3-2.4-4.6-3.8-7
	l-0.3-0.4l-0.1-0.2l-0.2-0.3l-0.7-1.1c-0.5-0.7-1-1.3-1.5-2l-0.2-0.3c-0.1-0.1-0.1-0.1-0.1-0.2l-0.3-0.3l-0.5-0.5l-0.5-0.5l-0.3-0.3
	l-0.1-0.1c0.1,0.1-1-1.1-0.6-0.7c-1.6-1.6-3.2-3.2-4.9-4.7c-1.8-1.5-3.4-3-5.2-4.4c-7.1-5.7-15-10.4-23.1-14.1
	c-8.2-3.7-16.6-6.4-25.1-8.3c-8.5-1.9-17-3-25.3-3.6c-8.4-0.6-16.7-0.6-24.9-0.3c-8.2,0.3-16.3,0.9-24.4,1.8
	c-16,1.8-31.9,4.4-47.4,7.4c-7.8,1.5-15.6,3.1-23.2,4.7c-7.7,1.7-15.4,3.4-23,5.1c0,0-261.9,29.5-277.4,27
	c15.1,4.4,52.1,10.6,52.1,10.6s73.1,3.2,88.9,2.2c15.8-0.9,78.6-8.6,94.1-11c15.6-2.4,77.3-12.8,92.6-15c7.7-1.1,15.3-2.2,23-3
	c7.6-0.9,15.2-1.6,22.8-2.2c15.2-1,30.2-1.2,44.7,0.3c14.4,1.5,28.3,4.8,40.4,10.7c6,3,11.6,6.6,16.6,10.8l3.6,3.3l3.3,3.4l0.1,0.2
	l0.5,0.5l0.5,0.5l0.3,0.3c0.1,0.1,0.1,0.1,0.1,0.1v0.1c0.1,0.1,0.1,0.2,0.1,0.3c0,0.1,0.1,0.1,0.1,0.1v0.1l0.1,0.1l0.1,0.2
	c0.6,0.9,1.1,2.1,1.7,3.4c1.1,2.6,2.1,5.5,2.8,8.7c0.7,3.2,1.4,6.5,1.9,10c0.9,6.9,1.5,14.3,1.8,21.6c0.5,14.8-0.2,30.1-1.3,45.3
	c-1.1,15.2-2.8,30.5-4.8,45.8s-4.3,30.6-6.8,45.9c-1.3,7.6-2.6,15.3-4,22.8l-0.3,1.3c-9.5-4.1-19.1-7.7-28.8-10.8
	c-16.8-5.4-34-9.2-51.1-12.2c-17.1-2.9-72.9-7.3-77.2-7.5c-8.6-0.3-68.3,0.4-76.7,0.9c-17,0.9-92.8,8-101.1,9
	c-8.4,1-83.4,11.5-100,14.1l-24.9,4l-24.9,4l-20.9,3.4c0-0.4,0.1-0.8,0.1-1.3c0.1-1.8,0.4-3.6,0.7-5.6c0.5-3.9,1.3-7.9,2.1-12
	l2.4-12.3c1.6-8.3,3.2-16.6,4.5-25.1c1-6.5,2-13.1,2.7-19.6c0.9-0.3,2-0.5,3-0.8c5.5-1.3,11.9-3.1,19.4-4.9c1.9-0.5,3.8-0.9,5.8-1.5
	c2-0.5,4-1,6.1-1.5c4.2-0.9,8.6-2.2,13.2-3.2c9.2-2.2,34.9-7.9,37.6-8.4c1.3-0.3,2.7-0.5,4-0.8c1.3-0.3,6.9-1.4,8.3-1.7
	s15.6-3,17-3.2c1.5-0.3,10.2-1.8,13.1-2.3c3-0.5,11.9-1.9,13.4-2.2c1.5-0.2,10.6-1.5,13.6-2c3-0.3,6.1-0.7,9.2-1.1
	c1.5-0.2,3-0.4,4.6-0.5l4.6-0.5l4.6-0.5c1.5-0.1,3.1-0.3,4.6-0.5c3.1-0.3,12.3-1.1,13.8-1.2s3.1-0.2,4.6-0.3c1.5-0.1,3-0.2,4.6-0.3
	c1.5-0.1,10.6-0.5,13.7-0.7c12.1-0.4,58.1,1,68.6,2.2c2.6,0.3,5.2,0.7,7.7,1c1.3,0.1,2.6,0.3,3.8,0.5c1.2,0.2,2.5,0.4,3.7,0.6
	c2.4,0.4,4.9,0.8,7.2,1.1c2.4,0.5,4.6,0.9,6.9,1.3c1.1,0.2,5.5,1.2,6.6,1.4c2.2,0.5,4.2,1,6.3,1.5c2,0.5,4,1.1,5.9,1.7
	c2,0.5,3.8,1,5.6,1.6c7.2,2.2,13.5,4.6,18.6,6.6c2.5,1.1,4.8,2,6.8,2.9c1,0.4,1.9,0.9,2.7,1.3s1.5,0.7,2.3,1.1c2.8,1.3,4.2,2,4.2,2
	s-5.7-5.6-7.3-7.1c-1.7-1.4-3.6-3-5.9-4.8c-4.5-3.5-10.2-7.5-17.1-11.5c-1.7-1.1-3.5-2-5.4-3s-3.8-2-5.8-3c-2-0.9-4.1-1.9-6.3-2.8
	c-1.1-0.5-2.2-0.9-3.3-1.5c-1.1-0.5-2.2-0.9-3.4-1.3c-2.3-0.9-11.9-4.3-14.5-5.2c-1.3-0.4-2.6-0.8-3.8-1.2c-1.3-0.3-2.6-0.7-3.9-1.1
	c-2.6-0.7-5.3-1.5-8.1-2.2c-11-2.7-22.7-4.7-34.9-6.2c-12.2-1.3-24.9-2.1-37.7-2.2c-12.9,0.1-25.9,0.6-38.8,1.9
	c-1.6,0.1-3.2,0.3-4.9,0.5l-4.9,0.5l-4.9,0.6c-1.6,0.2-3.2,0.5-4.8,0.7c-3.2,0.5-6.4,0.9-9.6,1.4c-3.2,0.5-6.3,1.1-9.4,1.7
	c-1.5,0.3-3.2,0.6-4.7,0.9c-1.5,0.3-3.1,0.7-4.6,1c-3.1,0.7-6.1,1.3-9.2,2c-3,0.7-6.1,1.5-9,2.2c-1.5,0.4-3,0.7-4.4,1.1
	s-3,0.8-4.4,1.2c-2.9,0.8-5.8,1.6-8.7,2.4c-2.8,0.8-5.7,1.8-8.4,2.6c-2.8,0.9-5.5,1.7-8.2,2.6c-2.7,0.9-5.3,1.9-8,2.8
	c-10.4,3.7-20.1,7.6-29,11.5c-1.1,0.5-2.2,0.9-3.3,1.4c-1.1,0.5-2.2,1-3.2,1.5c-2.1,0.9-4.2,1.9-6.1,2.8c-4,1.9-7.7,3.7-11.2,5.5
	c-7,3.5-12.9,6.9-17.9,9.6c-0.1,0.1-0.2,0.1-0.3,0.2c0.9-8.6,1.5-17.1,1.9-25.7c0.3-8.6,0.3-17,0-25.6c-0.1-4.2-0.4-8.5-0.7-12.8
	c-0.3-4.2-0.7-8.5-1.2-12.7c-1-8.5-2.3-16.8-3.9-25.2c-1.7-8.4-3.6-16.6-6-24.7c-4.7-16.2-10.6-32.1-17.9-47.2
	c5.4,15.9,9.8,32.1,12.8,48.4c0.7,3.8,1.3,7.5,1.9,11.3c-1.5-3.8-3.2-7.7-5.1-11.6c-3.8-7.7-8.4-15.7-13.9-23.6c-2.7-4-5.6-8-8.6-12
	c-3-4-6.3-8-9.6-12c-13.2-16.1-28.6-32.1-43.5-49.3s-29.3-35.7-39.6-56.6c-5.1-10.4-9.2-21.4-12-32.9c-2.8-11.5-4.3-23.4-4.6-35.6
	c-0.1-3-0.1-6.1-0.1-9.2c0-1.5,0.1-3.1,0.1-4.6c0-0.7,0.1-1.5,0.1-2.4l0.1-1.1v-0.5l0.1-0.6l0.1-2.5c0.1-0.8,0.1-1.7,0.2-2.4
	l0.2-2.3c0.1-0.7,0.1-1.5,0.2-2.3c0.3-3.2,0.7-6.3,1.1-9.4c0.9-6.3,2-12.5,3.3-18.6c1.3-6.1,3-12.2,4.9-18.1
	c1.9-5.9,4-11.8,6.5-17.5c2.5-5.7,5.2-11.2,8.3-16.6c3-5.3,6.4-10.4,10-15.4c3.6-4.9,7.4-9.6,11.6-14c16.4-17.7,36.9-31,58.8-38.6
	c21.9-7.7,44.9-9.9,66.6-7.7c5.4,0.6,10.7,1.3,15.9,2.4c5.2,1.1,10.3,2.4,15.2,3.9s9.8,3.2,14.4,5.1c4.6,1.9,9.2,3.9,13.5,6.1
	c17.3,8.8,31.9,19.6,43.9,30.4c11.9,10.8,21.2,21.7,28.3,31c5.4,7.1,9.6,13.3,12.8,18.3c-8.5,7.1-16.8,14-25.2,20.3
	c-12.1,9.3-24.1,17.6-36,24.7c-11.9,7.1-23.5,13.1-34.9,17.7c-22.7,9.4-44.1,13-61.9,13.3c-4.4,0.1-8.7,0-12.7-0.3
	c-2-0.1-3.9-0.3-5.8-0.4c-1.9-0.2-3.6-0.4-5.4-0.6c-3.4-0.5-6.7-0.9-9.6-1.5c-1.5-0.3-2.8-0.5-4.2-0.8c-1.3-0.3-2.6-0.5-3.8-0.8
	c-4.7-1.1-8.4-2.1-10.7-2.8c-2.4-0.7-3.6-1.1-3.6-1.1s1.2,0.5,3.5,1.6c2.3,1,5.7,2.5,10.4,4.2c4.6,1.7,10.4,3.6,17.3,5.4
	c3.5,0.9,7.2,1.8,11.3,2.4c4,0.7,8.4,1.3,13.1,1.8c2.3,0.2,4.7,0.3,7.1,0.5c1.2,0.1,2.5,0.1,3.7,0.1c1.3,0.1,2.6,0,3.8,0
	c5.2,0,10.6-0.3,16.2-0.8c11.3-1.1,61.2-16.4,74.3-22.9c6.5-3.2,13.1-6.9,19.7-10.7s13.3-8,19.9-12.3c6.6-4.4,13.3-9,19.9-13.8
	c6.7-4.9,13.4-9.8,20.1-15c13.5-10.4,27-21.4,40.8-32.9c13.8-11.4,27.8-23.2,42.2-35c14.4-11.7,29.2-23.5,44.5-34.7
	c7.7-5.6,15.5-11.1,23.5-16.4c8-5.3,16.2-10.3,24.5-15c16.7-9.4,34.2-17.5,52.3-23.4c4.5-1.4,9.1-2.8,13.7-3.9
	c4.6-1.1,9.2-2.2,13.9-3c4.6-0.8,9.4-1.5,14.1-2c4.7-0.5,9.4-0.8,14.1-0.9l3.6-0.1h0.9h0.3h0.5h2c2.7,0,5,0.1,7.3,0.1
	c4.9,0.2,9.8,0.5,14.7,0.8c4.9,0.4,9.7,0.9,14.6,1.6c4.8,0.7,9.6,1.5,14.4,2.4c4.7,0.9,9.4,2,14.1,3.3c4.6,1.2,9.2,2.6,13.7,4.2
	c4.5,1.5,9,3.3,13.3,5.1c4.4,1.9,8.6,4,12.8,6.1c8.4,4.4,16.2,9.6,23.6,15.2c3.7,2.8,7.3,5.9,10.7,9c3.4,3.2,6.7,6.5,9.9,9.9
	c3.2,3.4,6.2,7,9,10.7c2.8,3.7,5.6,7.5,8.2,11.4c2.6,3.9,5,7.9,7.3,12c2.3,4.1,4.4,8.2,6.5,12.5c4,8.5,7.5,17.2,10.6,26
	c1.5,4.4,2.9,8.9,4.2,13.4c1.3,4.5,2.5,9,3.6,13.5c1.1,4.5,2.1,9.1,3,13.6c0.5,2.3,0.9,4.6,1.3,6.8c0.2,1.1,0.4,2.3,0.6,3.4
	c0.1,1.1,0.3,2.2,0.5,3.2c1.3,8.9,2,17.9,2.4,26.8C1369.5,437.8,1369.4,446.7,1368.9,455.5z"/>
</svg>
